<?xml version="1.0" encoding="UTF-8"?>
<svg width="874px" height="315px" viewBox="0 0 874 315" version="1.1" xmlns="http://www.w3.org/2000/svg" xmlns:xlink="http://www.w3.org/1999/xlink">
    <!-- Generator: Sketch 57.1 (83088) - https://sketch.com -->
    <title>Cloud All</title>
    <desc>Created with Sketch.</desc>
    <g id="Cloud-All" stroke="none" stroke-width="1" fill="none" fill-rule="evenodd">
        <g id="shapes" transform="translate(0.000000, 34.000000)" fill="#F0F4FE">
            <g id="clouds">
                <path d="M827.469805,172.361141 C819.225507,172.361141 811.484427,174.17082 804.769533,177.340524 C795.550781,167.969224 781.634708,162 766.064131,162 C749.167319,162 734.218474,169.028475 725.10695,179.806073 C720.834776,177.330465 715.662455,175.878899 710.085679,175.878899 C697.986832,175.878899 687.786101,182.701157 684.583381,192.029202 C684.234421,192.019143 683.885461,192.006065 683.53368,192.006065 C667.222856,192.006065 654,203.150831 654,216.898958 C654,230.647086 667.222856,241.791851 683.53368,241.791851 C688.947733,241.791851 694.016589,240.558573 698.379059,238.41593 C706.351525,252.929575 723.782595,263 744.006285,263 C755.057312,263 765.274033,259.990239 773.571004,254.894168 C778.812929,259.445022 786.14297,262.276732 794.262169,262.276732 C804.90686,262.276732 814.198978,257.412025 819.196349,250.181357 C821.881742,250.587755 824.646145,250.800008 827.469805,250.800008 C853.167746,250.800008 874,233.240389 874,211.580574 C874,189.92076 853.167746,172.361141 827.469805,172.361141" id="Fill-1" transform="translate(764.000000, 212.500000) scale(-1, 1) translate(-764.000000, -212.500000) "></path>
                <path d="M380.4525,136.998405 C382.450159,139.219721 384.995274,140.936148 388.081286,141.848527 C392.074727,143.02826 397.113401,143.359221 401.251206,142.571076 C403.316359,142.177501 408.341908,138.765519 409.812732,138.980197 C410.689227,139.108407 411.589157,139.174997 412.505962,139.174997 C421.615883,139.174997 429,132.610435 429,124.512321 C429,116.936986 422.536437,110.703386 414.243952,109.931143 C410.019904,105.105868 403.424163,102 396.013798,102 C390.3283,101.999007 384.390634,103.451062 380.429065,107.28246 C373.14619,114.327064 373.226809,128.963899 380.4525,136.998405" id="Fill-4"></path>
                <path d="M173.469805,10.361141 C165.225507,10.361141 157.484427,12.1708199 150.769533,15.3405243 C141.550781,5.96922433 127.634708,0 112.064131,0 C95.1673187,0 80.2184741,7.02847496 71.1069497,17.8060735 C66.8347763,15.3304649 61.6624554,13.8788992 56.0856795,13.8788992 C43.9868317,13.8788992 33.7861006,20.7011573 30.5833814,30.029202 C30.2344214,30.0191427 29.8854614,30.0060655 29.5336796,30.0060655 C13.2228564,30.0060655 0,41.1508306 0,54.8989582 C0,68.6470858 13.2228564,79.7918509 29.5336796,79.7918509 C34.947733,79.7918509 40.0165886,78.5585734 44.379059,76.4159296 C52.3515253,90.9295745 69.7825948,101 90.0062849,101 C101.057312,101 111.274033,97.9902394 119.571004,92.8941676 C124.812929,97.4450221 132.14297,100.276732 140.262169,100.276732 C150.90686,100.276732 160.198978,95.4120254 165.196349,88.1813573 C167.881742,88.5877555 170.646145,88.800008 173.469805,88.800008 C199.167746,88.800008 220,71.2403888 220,49.5805745 C220,27.9207601 199.167746,10.361141 173.469805,10.361141" id="Fill-1" transform="translate(110.000000, 50.500000) scale(-1, 1) translate(-110.000000, -50.500000) "></path>
            </g>
        </g>
    </g>
</svg>