<?xml version="1.0" encoding="UTF-8"?>
<svg width="289px" height="213px" viewBox="0 0 289 213" version="1.1" xmlns="http://www.w3.org/2000/svg" xmlns:xlink="http://www.w3.org/1999/xlink">
    <!-- Generator: Sketch 57.1 (83088) - https://sketch.com -->
    <title>Cloud_Mid</title>
    <desc>Created with Sketch.</desc>
    <g id="Cloud_Mid" stroke="none" stroke-width="1" fill="none" fill-rule="evenodd">
        <g id="shapes" transform="translate(53.000000, 37.000000)" fill="#F0F4FE">
            <g id="clouds">
                <path d="M18.3769455,117.799509 C25.1097935,125.276134 33.6877766,131.053375 44.0887787,134.124311 C57.5481556,138.095119 74.5303507,139.209086 88.4762873,136.556305 C95.4366176,135.231588 112.37458,123.747357 117.331801,124.46993 C120.285913,124.901467 123.319012,125.125598 126.408982,125.125598 C157.112791,125.125598 182,103.030246 182,75.7731781 C182,50.27571 160.215398,29.2943245 132.266654,26.6950681 C118.030046,10.4538967 95.7999576,0 70.8242828,0 C51.6620478,-0.00334353044 31.6499132,4.88406147 18.2979586,17.7799864 C-6.24802718,41.4910929 -5.97631206,90.7565368 18.3769455,117.799509" id="Fill-4"></path>
            </g>
        </g>
    </g>
</svg>