<?xml version="1.0" encoding="UTF-8"?>
<svg width="239px" height="158px" viewBox="0 0 239 158" version="1.1" xmlns="http://www.w3.org/2000/svg" xmlns:xlink="http://www.w3.org/1999/xlink">
    <!-- Generator: Sketch 57.1 (83088) - https://sketch.com -->
    <title>Cloud_Left</title>
    <desc>Created with Sketch.</desc>
    <g id="Cloud_Left" stroke="none" stroke-width="1" fill="none" fill-rule="evenodd">
        <g id="shapes" transform="translate(0.000000, 34.000000)" fill="#F0F4FE">
            <g id="clouds">
                <path d="M173.469805,10.361141 C165.225507,10.361141 157.484427,12.1708199 150.769533,15.3405243 C141.550781,5.96922433 127.634708,0 112.064131,0 C95.1673187,0 80.2184741,7.02847496 71.1069497,17.8060735 C66.8347763,15.3304649 61.6624554,13.8788992 56.0856795,13.8788992 C43.9868317,13.8788992 33.7861006,20.7011573 30.5833814,30.029202 C30.2344214,30.0191427 29.8854614,30.0060655 29.5336796,30.0060655 C13.2228564,30.0060655 0,41.1508306 0,54.8989582 C0,68.6470858 13.2228564,79.7918509 29.5336796,79.7918509 C34.947733,79.7918509 40.0165886,78.5585734 44.379059,76.4159296 C52.3515253,90.9295745 69.7825948,101 90.0062849,101 C101.057312,101 111.274033,97.9902394 119.571004,92.8941676 C124.812929,97.4450221 132.14297,100.276732 140.262169,100.276732 C150.90686,100.276732 160.198978,95.4120254 165.196349,88.1813573 C167.881742,88.5877555 170.646145,88.800008 173.469805,88.800008 C199.167746,88.800008 220,71.2403888 220,49.5805745 C220,27.9207601 199.167746,10.361141 173.469805,10.361141" id="Fill-1" transform="translate(110.000000, 50.500000) scale(-1, 1) translate(-110.000000, -50.500000) "></path>
            </g>
        </g>
    </g>
</svg>