<?xml version="1.0" encoding="UTF-8"?>
<svg width="603px" height="1055px" viewBox="0 0 603 1055" version="1.1" xmlns="http://www.w3.org/2000/svg" xmlns:xlink="http://www.w3.org/1999/xlink">
    <!-- Generator: Sketch 57.1 (83088) - https://sketch.com -->
    <title>Backgrouund_Dark</title>
    <desc>Created with Sketch.</desc>
    <g id="Backgrouund_Dark" stroke="none" stroke-width="1" fill="none" fill-rule="evenodd">
        <g id="shapes" transform="translate(-815.000000, -686.000000)" fill="#1766A6">
            <g id="Fill-1">
                <path d="M1459.36795,37.4924008 L45.3844319,37.4924008 L45.3844319,1778.92056 C85.4101606,1780.39041 125.679456,1779.60641 165.327408,1777.78245 C250.365771,1773.86493 329.148444,1734.58526 410.573072,1712.25423 C528.94529,1679.79079 632.995533,1697.80546 748.049776,1723.5558 C855.045188,1747.49957 939.652339,1690.92836 924.523859,1591.62215 C908.821257,1488.55373 808.869398,1411.95752 808.869398,1301.89893 C808.869398,1199.66918 900.234284,1139.52212 1031.99398,1066.65706 C1083.56055,1038.13974 1288.51703,953.681133 1333.96088,925.598672 C1381.07117,896.486198 1417.979,853.522593 1415.99442,793.175494 C1414.0782,734.945576 1383.74916,682.183798 1368.18947,627.461392 C1350.78811,566.266924 1344.12607,495.481778 1365.95636,434.428952 C1385.70888,379.187191 1432.55821,344.718399 1461.90552,296.063007 C1510.61142,215.311954 1500.50092,117.987503 1459.36795,37.4924008 Z" transform="translate(769.938245, 908.590374) rotate(-3.000000) translate(-769.938245, -908.590374) "></path>
            </g>
        </g>
    </g>
</svg>