<?xml version="1.0" encoding="UTF-8"?>
<svg width="289px" height="1057px" viewBox="0 0 289 1057" version="1.1" xmlns="http://www.w3.org/2000/svg" xmlns:xlink="http://www.w3.org/1999/xlink">
    <!-- Generator: Sketch 57.1 (83088) - https://sketch.com -->
    <title>Background_Light</title>
    <desc>Created with Sketch.</desc>
    <g id="Background_Light" stroke="none" stroke-width="1" fill="none" fill-rule="evenodd">
        <g id="shapes" transform="translate(43.000000, -23.000000)" fill="#F0F4FE">
            <g id="Fill-1">
                <path d="M315.855008,0.0968740357 C210.162656,0.0968740357 130.893391,0.0968740357 78.047215,0.0968740357 C-15.5945083,902.302 -24.9721197,1336.02351 49.9143807,1301.2614 C89.4990832,1282.88629 121.589652,1267.11571 138.350315,1256.76148 C205.031544,1215.56752 257.271916,1154.77429 254.462897,1069.38354 C251.750619,986.988586 208.822049,912.331013 186.798423,834.899164 C162.168055,748.309389 152.738404,648.148867 183.637616,561.759516 C211.59589,483.592782 277.907743,434.819666 319.446754,365.972602 C388.386456,251.710387 374.07576,113.996921 315.855008,0.0968740357 Z" transform="translate(182.785326, 651.646410) scale(-1, -1) translate(-182.785326, -651.646410) "></path>
            </g>
        </g>
    </g>
</svg>