<?xml version="1.0" encoding="UTF-8"?>
<svg width="862px" height="317px" viewBox="0 0 862 317" version="1.1" xmlns="http://www.w3.org/2000/svg" xmlns:xlink="http://www.w3.org/1999/xlink">
    <!-- Generator: Sketch 57.1 (83088) - https://sketch.com -->
    <title>Grass</title>
    <desc>Created with Sketch.</desc>
    <g id="Grass" stroke="none" stroke-width="1" fill="none" fill-rule="evenodd">
        <g id="shapes" transform="translate(-17.000000, 41.000000)">
            <g id="grass">
                <path d="M781.270341,164.65207 C599.594517,196.960966 560.062214,123.618792 485.295911,92.109805 C348.405096,34.4206776 281.0093,177.543912 195.438027,103.987184 C141.52232,57.6437172 75.7682857,16.9485935 4.5223637,22.5479627 L4.5223637,146.081567 C46.8667914,135.486842 105.443056,119.922415 195.614511,173.217868 C293.335279,230.976959 383.555499,129.787193 502.869951,159.754662 C600.980841,184.39795 707.226226,230.909328 793.545232,213.040787 C878.011161,195.552378 866.980943,149.40714 781.270341,164.65207" id="Fill-58" fill="#1766A6" transform="translate(428.022364, 119.530657) rotate(3.000000) translate(-428.022364, -119.530657) "></path>
                <path d="M658.5233,175.5503 C665.0723,156.2043 671.8573,142.0773 677.4063,143.6513 C682.8753,145.2023 684.3693,158.1133 683.7693,175.5503 L658.5233,175.5503 Z" id="Fill-60" fill="#E84E45"></path>
                <path d="M391.8407,158.6123 L391.8407,185.5503 L618.2577,185.5503 C616.8037,92.9693 596.2227,152.4003 596.2227,152.4003 C596.2227,152.4003 589.4487,84.7403 574.4877,81.9973 C560.3567,79.4063 552.9707,131.7673 552.9707,131.7673 C552.9707,131.7673 537.1127,60.2123 516.7777,56.4133 C498.9457,53.0823 514.1887,137.3563 514.1887,137.3563 C514.1887,137.3563 503.7247,127.6313 488.6987,126.9013 C471.9707,126.0883 478.8017,145.3113 478.8017,145.3113 C478.8017,145.3113 457.9017,102.5093 444.1767,103.3153 C426.9637,104.3263 438.8067,147.7133 438.8067,147.7133 C438.8067,147.7133 426.1537,133.4233 412.8797,131.4103 C386.9097,127.4713 414.4897,166.7823 414.4897,166.7823 C414.4897,166.7823 406.4497,162.8903 391.8407,158.6123" id="Fill-64" fill="#E84E45" transform="translate(505.049200, 120.933697) scale(-1, 1) translate(-505.049200, -120.933697) "></path>
            </g>
        </g>
    </g>
</svg>