<?xml version="1.0" encoding="UTF-8"?>
<svg width="640px" height="1068px" viewBox="0 0 640 1068" version="1.1" xmlns="http://www.w3.org/2000/svg" xmlns:xlink="http://www.w3.org/1999/xlink">
    <!-- Generator: Sketch 57.1 (83088) - https://sketch.com -->
    <title>Mobile Bottom 2</title>
    <desc>Created with Sketch.</desc>
    <g id="Mobile-Bottom-2" stroke="none" stroke-width="1" fill="none" fill-rule="evenodd">
        <g id="shapes" transform="translate(428.000000, 0.000000)" fill="#F0F4FE">
            <g id="bottom">
                <path d="M258.830654,0 C172.219962,0 107.261943,0 63.9565976,0 C-12.7790811,738.809714 -20.4636618,1093.98134 40.9028556,1065.51489 C73.3409495,1050.46763 99.6378978,1037.55321 113.372596,1029.0742 C168.015219,995.340741 210.824133,945.557579 208.522253,875.631666 C206.299649,808.15899 171.121388,747.022405 153.0739,683.613985 C132.89029,612.7062 125.163065,530.685422 150.483744,459.941762 C173.394441,395.93155 227.734374,355.991572 261.773947,299.613175 C318.267299,206.044615 306.540251,93.2719832 258.830654,0 Z" id="Fill-1" transform="translate(149.785326, 533.549536) scale(-1, -1) translate(-149.785326, -533.549536) "></path>
            </g>
        </g>
    </g>
</svg>