<svg xmlns="http://www.w3.org/2000/svg" viewBox="0 0 456 301" width="456" height="301">
	<style>
		tspan { white-space:pre }
		.shp0 { fill: #0560a7 } 
		.shp1 { fill: #9fc8f4 } 
		.shp2 { fill: #e84e45 } 
		.shp3 { fill: #fced8b } 
		.shp4 { fill: #f9de54 } 
		.shp5 { fill: #1f213c } 
	</style>
	<g id="bottom copy">
		<path id="Fill 1 copy 2" class="shp0" d="M251.19 722.74C259.19 689.75 327.74 675.62 334.32 645.13C354.39 552.2 371 454.51 368.59 357.9C367.4 310.21 365.26 257.11 344.36 212.49C315.8 151.51 268.32 145.72 207.32 151.08C131.04 157.78 35.94 143.98 -23.18 91.16C-42.3 74.09 -55.92 53.61 -65.62 31.26C-82.92 -8.55 -233.02 202.94 -233.02 202.94C-233.02 202.94 244.03 752.25 251.19 722.74Z" />
		<g id="grass copy">
			<path id="Fill 58 copy" class="shp1" d="M305.39 315.24C187.44 329.93 164.49 281.3 117.46 258.45C31.35 216.61 -16.83 306.64 -69.39 256.31C-102.51 224.6 -143.43 196.13 -189.44 197.33L-193.61 277.01C-166.01 271.6 -127.81 263.55 -71.61 300.97C-10.7 341.52 50.74 279.31 126.48 302.67C188.76 321.88 255.53 355.47 311.65 346.86C366.57 338.44 361.03 308.3 305.39 315.24" />
			<path id="Fill 60 copy" class="shp2" d="M228.16 310.38C232.38 297.88 236.75 288.76 240.32 289.77C243.85 290.78 244.81 299.11 244.42 310.38L228.16 310.38Z" />
			<path id="Fill 64 copy" class="shp2" d="M202.22 299.44L202.22 316.83L56.39 316.83C57.32 257.04 70.58 295.43 70.58 295.43C70.58 295.43 74.94 251.73 84.58 249.96C93.68 248.28 98.44 282.1 98.44 282.1C98.44 282.1 108.65 235.89 121.75 233.43C133.24 231.28 123.42 285.71 123.42 285.71C123.42 285.71 130.16 279.43 139.84 278.96C150.61 278.43 146.21 290.85 146.21 290.85C146.21 290.85 159.67 263.2 168.51 263.72C179.6 264.38 171.97 292.4 171.97 292.4C171.97 292.4 180.12 283.17 188.67 281.87C205.4 279.33 187.64 304.71 187.64 304.71C187.64 304.71 192.81 302.2 202.22 299.44" />
		</g>
		<g id="tree copy">
			<path id="Fill 43 copy" class="shp3" d="M46.73 214.49C84.24 228.18 131.73 220.58 158.09 188.8C170.73 173.55 179.27 152 178.99 132.01C178.87 123.45 175.88 114.36 168.11 109.87C160.46 105.44 149.42 107.65 143.14 100.68C136.52 93.35 142.61 81.56 144.12 73.4C145.68 64.91 144.38 54.72 139.04 47.71C129.93 35.74 109.41 37.72 98.35 44.02C58.77 66.55 57.47 54.06 41.99 59.3C27.32 64.27 33.11 83.04 16.23 85.52C6.1 87.01 -1.9 93.11 -5.85 99.5C-18.39 119.85 -12.52 148.33 -2.89 168.62C7.23 189.93 24.57 206.4 46.73 214.49Z" />
			<path id="Fill 44 copy" class="shp4" d="M74.63 66.68C91.7 66.63 100.76 64 105.31 68.79C113.83 77.74 96.61 93.5 85.89 108.3C82.42 113.11 82.06 119.42 86.52 122.61C95.45 129 115.14 116.11 125.22 125.21C141.13 139.59 106.61 218.78 154.28 192.81C155.59 191.45 156.85 190.04 158.07 188.58C170.72 173.35 179.28 151.83 178.99 131.87C178.88 123.32 175.88 114.26 168.1 109.77C160.44 105.34 149.38 107.55 143.1 100.59C136.47 93.27 142.56 81.49 144.07 73.35C145.64 64.87 144.33 54.7 139 47.7C129.86 35.75 109.32 37.72 98.25 44.01C69.84 60.15 61.12 58.29 52.76 57.89C44.73 61.64 54.9 66.73 74.63 66.68" />
			<path id="Fill 45 copy" class="shp5" d="M82 304C85.04 300.14 90.22 297.52 94.93 297.04C99.78 296.55 103.07 300.4 101.68 304L82 304Z" />
			<path id="Fill 46 copy" class="shp5" d="M73.97 309L84.41 309L84.8 244.61L100 145.54L96.91 142L79.1 238.94L67.45 175.56L64 179.22L75.35 251.67L73.97 309Z" />
			<path id="Fill 47 copy" class="shp5" d="M47 168.29L69 201L69 198.31L48.25 167L47 168.29Z" />
			<path id="Fill 48 copy" class="shp5" d="M92 193L114 169.36L113.13 168L92.03 189.71L92 193Z" />
			<path id="Fill 49 copy" class="shp5" d="M86 138.42L91.72 172L93 168.68L87.31 138L86 138.42Z" />
		</g>
	</g>
</svg>