<?xml version="1.0" encoding="UTF-8"?>
<svg width="640px" height="570px" viewBox="0 0 640 570" version="1.1" xmlns="http://www.w3.org/2000/svg" xmlns:xlink="http://www.w3.org/1999/xlink">
    <!-- Generator: Sketch 57.1 (83088) - https://sketch.com -->
    <title>Mobile Top</title>
    <desc>Created with Sketch.</desc>
    <g id="Mobile-Top" stroke="none" stroke-width="1" fill="none" fill-rule="evenodd">
        <g id="shapes" transform="translate(-502.000000, -651.000000)" fill="#0560A7">
            <g id="top">
                <path d="M1154.84556,161.22974 L258.015665,161.22974 L258.015665,1265.93863 C283.402291,1266.87106 308.9434,1266.37371 334.090418,1265.21665 C388.026652,1262.73148 437.995167,1237.81367 489.639361,1223.64754 C564.717849,1203.05373 630.712513,1214.48168 703.686549,1230.81691 C771.54921,1246.00611 825.211944,1210.11906 815.61659,1147.12223 C805.657094,1081.73877 742.261861,1033.14847 742.261861,963.330657 C742.261861,898.479223 800.210741,860.323764 883.780337,814.100398 C916.486829,796.009876 1046.48205,742.431915 1075.30516,724.617258 C1105.18522,706.149193 1128.5943,678.894393 1127.33557,640.612035 C1126.12019,603.672752 1106.88376,570.20229 1097.01491,535.488065 C1085.97796,496.668162 1081.75251,451.764225 1095.59854,413.034176 C1108.12673,377.990488 1137.84127,356.124538 1156.45503,325.259042 C1187.34712,274.033039 1180.93446,212.293377 1154.84556,161.22974 Z" id="Fill-1" transform="translate(717.569479, 713.827713) rotate(47.000000) translate(-717.569479, -713.827713) "></path>
            </g>
        </g>
    </g>
</svg>