<?xml version="1.0" encoding="UTF-8"?>
<svg width="525px" height="810px" viewBox="0 0 525 810" version="1.1" xmlns="http://www.w3.org/2000/svg" xmlns:xlink="http://www.w3.org/1999/xlink">
    <!-- Generator: Sketch 57.1 (83088) - https://sketch.com -->
    <title>Tree</title>
    <desc>Created with Sketch.</desc>
    <g id="Tree" stroke="none" stroke-width="1" fill="none" fill-rule="evenodd">
        <g id="shapes" transform="translate(19.000000, 122.000000)">
            <g id="tree">
                <path d="M146.531149,431.617171 C238.531551,465.278937 355.035253,446.59285 419.69423,368.423902 C450.71768,330.91515 471.664536,277.909693 470.983889,228.748694 C470.692542,207.700289 463.346072,185.35691 444.282926,174.301565 C425.518662,163.41821 398.425887,168.843447 383.022162,151.702732 C366.802162,133.664133 381.728681,104.676418 385.425776,84.5967155 C389.266033,63.7253585 386.061214,38.663037 372.980731,21.4337976 C350.629883,-8.00918196 300.294637,-3.15049597 273.149119,12.3462084 C176.065212,67.7645681 172.865416,37.0291426 134.902379,49.918192 C98.9009113,62.1420491 113.114132,108.321065 71.6926025,114.414024 C46.8552569,118.068788 27.224486,133.077347 17.5447277,148.806742 C-13.225049,198.855508 1.1790543,268.885335 24.8058022,318.784875 C49.6305898,371.218721 92.1647639,411.724633 146.531149,431.617171 Z" id="Fill-43" fill="#FCED8B"></path>
                <path d="M214.268014,68.1478614 C256.262815,68.0138659 278.557658,61.5416321 289.754255,73.3408178 C310.699959,95.384336 268.33446,134.184872 241.974546,170.624054 C233.433359,182.458635 232.55831,197.997053 243.520382,205.852221 C265.477311,221.592896 313.927806,189.841027 338.709101,212.256193 C377.846752,247.651221 292.946797,442.627265 410.190793,378.68109 C413.421162,375.343844 416.512835,371.872603 419.506159,368.264838 C450.639757,330.778975 471.688854,277.78756 470.982762,228.639035 C470.712934,207.604275 463.316624,185.290237 444.184062,174.231819 C425.356633,163.342791 398.154452,168.770872 382.688524,151.647262 C366.380328,133.613495 381.377211,104.622439 385.074105,84.5635701 C388.942478,63.6982007 385.714631,38.6536896 372.6015,21.4289517 C350.140221,-8.00201472 299.604233,-3.14783935 272.36927,12.3248446 C202.49898,52.0684055 181.048924,47.4847493 160.471396,46.5063295 C140.733613,55.744432 165.749431,68.2843851 214.268014,68.1478614" id="Fill-44" fill="#F9DE54"></path>
                <path d="M234.673684,652.437811 C241.962311,643.332179 254.371365,637.148971 265.654181,636.021106 C277.289424,634.860658 285.162878,643.93872 281.830132,652.437811 L234.673684,652.437811 Z" id="Fill-45" fill="#1F213C"></path>
                <polygon id="Fill-46" fill="#1F213C" points="214.318903 664 239.712757 664 240.654448 505.430488 277.642105 261.435147 270.128147 252.716418 226.793248 491.457744 198.434903 335.363389 190.052632 344.373164 217.674746 522.812268"></polygon>
                <polygon id="Fill-47" fill="#1F213C" points="147.084211 318.674706 201.621053 399.721393 201.621053 393.045389 150.186297 315.482587"></polygon>
                <polygon id="Fill-48" fill="#1F213C" points="257.810526 378.248756 312.347368 320.459423 310.197988 317.134328 257.886589 370.209315"></polygon>
                <polygon id="Fill-49" fill="#1F213C" points="242.936842 243.830105 256.445835 325.393035 259.463158 317.337567 246.019496 242.80597"></polygon>
            </g>
        </g>
    </g>
</svg>