<?xml version="1.0" encoding="UTF-8"?>
<svg width="276px" height="317px" viewBox="0 0 276 317" version="1.1" xmlns="http://www.w3.org/2000/svg" xmlns:xlink="http://www.w3.org/1999/xlink">
    <!-- Generator: Sketch 57.1 (83088) - https://sketch.com -->
    <title>twitter</title>
    <desc>Created with Sketch.</desc>
    <g id="twitter" stroke="none" stroke-width="1" fill="none" fill-rule="evenodd">
        <g id="Twitter" transform="translate(32.000000, 53.000000)">
            <ellipse id="Oval" fill="#EDEEEF" cx="106.5" cy="105.5" rx="106.5" ry="105.5"></ellipse>
            <g id="logo-twitter" transform="translate(55.000000, 62.000000)" fill="#1F213C" fill-rule="nonzero">
                <path d="M106,9.92307692 C102.025,11.9076923 98.05,12.5692308 93.4125,13.2307692 C98.05,10.5846154 101.3625,6.61538462 102.6875,1.32307692 C98.7125,3.96923077 94.075,5.29230769 88.775,6.61538462 C84.8,2.64615385 78.8375,0 72.875,0 C61.6125,0 51.675,9.92307692 51.675,21.8307692 C51.675,23.8153846 51.675,25.1384615 52.3375,26.4615385 C34.45,25.8 17.8875,17.2 7.2875,3.96923077 C5.3,7.27692308 4.6375,10.5846154 4.6375,15.2153846 C4.6375,22.4923077 8.6125,29.1076923 14.575,33.0769231 C11.2625,33.0769231 7.95,31.7538462 4.6375,30.4307692 C4.6375,30.4307692 4.6375,30.4307692 4.6375,30.4307692 C4.6375,41.0153846 11.925,49.6153846 21.8625,51.6 C19.875,52.2615385 17.8875,52.2615385 15.9,52.2615385 C14.575,52.2615385 13.25,52.2615385 11.925,51.6 C14.575,60.2 22.525,66.8153846 32.4625,66.8153846 C25.175,72.7692308 15.9,76.0769231 5.3,76.0769231 C3.3125,76.0769231 1.9875,76.0769231 0,76.0769231 C9.9375,82.0307692 21.2,86 33.125,86 C72.875,86 94.7375,52.9230769 94.7375,24.4769231 C94.7375,23.8153846 94.7375,22.4923077 94.7375,21.8307692 C99.375,18.5230769 103.35,14.5538462 106,9.92307692 Z" id="Shape"></path>
            </g>
        </g>
    </g>
</svg>